:SAMPLES-PER-SECOND 30
:FRAME-RANGE 1-2775
:FULLY-SPECIFIED
:DEGREES
1995
root  -58.8894 38.9382 -9.13152 -179.62 79.3037 179.032
RightUpLeg  -12.4092 -2.65638 5.43127
RightLeg  20.5337 -5.07197 -1.82988
RightFoot  -11.2604 -0.073294 -3.93303
RightToes  -5.28216e-011 1.2921e-014 -6.02303e-014
Spine  8.32944 0.62254 5.31555
Spine1  -1.34134 2.12457 -5.79513
HEad  -5.04731 -29.2914 4.35747
LeftShoulder1  1.34555 -0.381736 -28.5385
LeftArm  22.6842 12.5027 -30.284
LeftForeArm  2.0979 -31.3518 -6.76325
LeftHand  0.67814 -4.58249 -7.59504
RightShoulder  4.73993 20.6526 12.4923
RightArm  -18.6672 27.3822 0.236137
RightForeArm  18.5807 18.7636 5.8337
RightHand  -0.581195 5.49876 -6.50049
LeftUpLeg  -9.41966 14.0649 13.4775
LeftLeg  21.1697 5.48236 2.66275
LeftFoot  -6.21085 0.511898 -10.5743
LeftToes  -2.158e-010 -1.26819e-010 -1.05346e-011
1996
root  -59.0678 39.1218 -10.0422 179.898 82.1901 178.154
RightUpLeg  -12.4164 0.220468 4.06955
RightLeg  19.4225 -4.77404 -2.05459
RightFoot  -10.1953 -0.0445589 -2.43811
RightToes  -5.28216e-011 1.2921e-014 -6.02303e-014
Spine  7.71676 0.754686 6.92619
Spine1  -1.07757 2.73807 -8.39022
HEad  -5.05402 -27.4891 4.02887
LeftShoulder1  1.43284 -0.595677 -28.8706
LeftArm  26.2799 13.6787 -32.0745
LeftForeArm  1.8617 -31.1154 -6.71578
LeftHand  0.708403 -4.2248 -8.26631
RightShoulder  3.12169 20.9375 4.85155
RightArm  -37.3858 30.002 -3.368
RightForeArm  25.7613 14.6565 6.46339
RightHand  -0.631496 5.57031 -6.99239
LeftUpLeg  -7.16869 11.592 13.7611
LeftLeg  10.431 3.75975 1.01542
LeftFoot  -3.64427 1.03169 -14.9431
LeftToes  -2.158e-010 -1.26819e-010 -1.05346e-011
1997
root  -59.2649 39.1528 -10.9874 -179.624 84.0311 178.291
RightUpLeg  -13.2515 2.65982 2.55318
RightLeg  19.8881 -4.89826 -2.24346
RightFoot  -9.91136 -0.0565765 -0.843479
RightToes  -5.28216e-011 1.2921e-014 -6.02303e-014
Spine  7.82113 0.749106 8.54354
Spine1  -1.40185 3.14382 -10.4268
HEad  -5.4318 -26.506 3.95761
LeftShoulder1  1.54231 -0.858798 -29.2831
LeftArm  28.4808 14.5506 -34.0529
LeftForeArm  1.44298 -30.5451 -6.59409
LeftHand  0.854898 -4.55964 -9.66418
RightShoulder  1.4744 20.1574 -2.55492
RightArm  -52.702 31.2339 -6.72278
RightForeArm  24.6554 12.461 5.03465
RightHand  -0.612753 5.38896 -6.8991
LeftUpLeg  -7.52711 12.9066 13.2908
LeftLeg  8.80638 0.232679 -0.64755
LeftFoot  -0.447509 1.28379 -13.3877
LeftToes  -2.158e-010 -1.26819e-010 -1.05346e-011
1998
root  -59.4448 39.1668 -11.8615 171.579 84.8885 169.352
RightUpLeg  -14.1125 4.23092 0.149238
RightLeg  20.9257 -5.23276 -2.42365
RightFoot  -10.0043 -0.0761873 0.718902
RightToes  -5.28216e-011 1.2921e-014 -6.02303e-014
Spine  8.58367 0.758642 8.33704
Spine1  -2.13078 3.2972 -11.4408
HEad  -6.06651 -26.2794 4.57399
LeftShoulder1  1.62923 -1.06602 -29.5898
LeftArm  30.5422 15.1181 -35.5032
LeftForeArm  0.327115 -30.6307 -6.67654
LeftHand  0.861323 -4.3033 -10.0137
RightShoulder  0.210637 18.5107 -8.57819
RightArm  -64.2406 31.6533 -9.30122
RightForeArm  16.2782 12.7286 3.27833
RightHand  -0.499017 4.67473 -6.03978
LeftUpLeg  -8.26856 15.1855 11.4107
LeftLeg  10.6485 -0.603712 -1.54727
LeftFoot  -1.85567 1.04282 -12.398
LeftToes  -2.158e-010 -1.26819e-010 -1.05346e-011
1999
root  -59.5475 39.2873 -12.6386 158.415 85.0251 156.094
RightUpLeg  -14.1021 4.75359 -2.39589
RightLeg  20.5421 -4.93412 -2.25687
RightFoot  -9.62364 -0.0928634 1.84013
RightToes  -5.28216e-011 1.2921e-014 -6.02303e-014
Spine  8.83302 0.766046 7.82341
Spine1  -2.49016 3.48941 -12.8295
HEad  -6.17497 -26.5029 5.25274
LeftShoulder1  1.70561 -1.2785 -29.6057
LeftArm  32.0436 15.684 -36.5203
LeftForeArm  1.21193 -30.3075 -6.54693
LeftHand  0.708833 -4.36135 -8.1462
RightShoulder  -0.532 16.9587 -12.6539
RightArm  -72.9644 31.6191 -11.5905
RightForeArm  10.8361 14.789 2.4485
RightHand  -0.479646 4.0003 -6.19247
LeftUpLeg  -7.38635 15.1498 9.74837
LeftLeg  9.35838 0.268438 -2.88595
LeftFoot  -1.58204 0.987787 -11.4312
LeftToes  -2.158e-010 -1.26819e-010 -1.05346e-011
2000
root  -59.5832 39.4031 -13.38 153.086 85.284 150.553
RightUpLeg  -13.7645 5.60331 -4.01927
RightLeg  19.3694 -5.34238 -2.29516
RightFoot  -8.97953 -0.12289 3.0031
RightToes  -5.28216e-011 1.2921e-014 -6.02303e-014
Spine  8.41449 0.842913 8.3017
Spine1  -2.64576 3.73771 -13.9484
HEad  -5.30349 -26.865 5.0374
LeftShoulder1  1.71135 -1.27947 -29.7203
LeftArm  31.1457 16.0744 -36.8593
LeftForeArm  -0.331669 -29.7947 -6.50225
LeftHand  0.635598 -3.90377 -7.66992
RightShoulder  -1.07662 15.8261 -16.057
RightArm  -76.141 31.3547 -13.2346
RightForeArm  13.4325 17.7903 3.02693
RightHand  -0.621953 3.75177 -8.14583
LeftUpLeg  -7.27852 13.1587 8.17609
LeftLeg  8.91903 2.80932 -2.58417
LeftFoot  -1.61087 0.882457 -10.2348
LeftToes  -2.158e-010 -1.26819e-010 -1.05346e-011
2001
root  -59.5574 39.5235 -14.0332 150.737 85.5187 148.438
RightUpLeg  -12.6166 6.71872 -5.06444
RightLeg  17.7501 -6.23456 -2.55817
RightFoot  -8.1585 -0.174722 4.29045
RightToes  -5.28216e-011 1.2921e-014 -6.02303e-014
Spine  8.18868 1.09763 8.38876
Spine1  -2.7952 3.96855 -13.9881
HEad  -4.05515 -27.4592 3.99738
LeftShoulder1  1.62466 -1.05894 -29.5442
LeftArm  30.3732 16.216 -37.24
LeftForeArm  -1.26144 -28.81 -6.30925
LeftHand  0.705842 -4.29423 -8.17166
RightShoulder  -1.50169 14.8342 -19.0527
RightArm  -73.4035 31.4446 -14.3274
RightForeArm  19.2972 21.5712 3.71271
RightHand  -0.778282 3.96095 -9.90665
LeftUpLeg  -6.54468 11.8152 7.15862
LeftLeg  8.29927 4.55794 -2.43111
LeftFoot  -1.74392 0.793064 -9.30874
LeftToes  -2.158e-010 -1.26819e-010 -1.05346e-011
2002
root  -59.4896 39.6333 -14.5781 150.694 85.7937 148.578
RightUpLeg  -11.3716 6.94942 -5.55176
RightLeg  15.895 -5.9689 -2.70542
RightFoot  -7.20669 -0.234046 5.12155
RightToes  -5.28216e-011 1.2921e-014 -6.02303e-014
Spine  7.62304 1.46486 8.52371
Spine1  -2.7808 4.31939 -14.097
HEad  -2.71244 -28.1464 3.18539
LeftShoulder1  1.54998 -0.921231 -28.9519
LeftArm  30.4374 16.331 -37.3392
LeftForeArm  -2.39981 -28.4785 -6.28847
LeftHand  0.751663 -4.46393 -8.55628
RightShoulder  -1.76042 14.141 -21.0925
RightArm  -68.9437 31.5683 -14.992
RightForeArm  26.8083 26.503 4.25895
RightHand  -0.99885 4.58116 -11.8735
LeftUpLeg  -5.69336 10.872 6.58154
LeftLeg  7.43335 5.78311 -2.53284
LeftFoot  -1.77011 0.728992 -8.57073
LeftToes  -2.158e-010 -1.26819e-010 -1.05346e-011
2003
root  -59.4131 39.7287 -15.036 153.144 85.8365 151.141
RightUpLeg  -10.116 5.72147 -5.73483
RightLeg  13.9272 -4.65983 -2.82037
RightFoot  -6.25856 -0.296744 5.7203
RightToes  -5.28216e-011 1.2921e-014 -6.02303e-014
Spine  6.83301 1.67728 8.45426
Spine1  -2.53455 4.48928 -14.0651
HEad  -1.60349 -28.576 2.78624
LeftShoulder1  1.51952 -0.907139 -28.36
LeftArm  30.4455 16.6525 -36.9013
LeftForeArm  -1.61143 -28.5187 -6.25688
LeftHand  0.789882 -4.65185 -8.82281
RightShoulder  -1.96896 13.8957 -22.6145
RightArm  -69.2234 31.954 -15.4578
RightForeArm  39.039 29.0244 4.17223
RightHand  -1.6276 5.98191 -16.8095
LeftUpLeg  -4.96525 10.1175 6.04951
LeftLeg  6.49687 6.54126 -2.5571
LeftFoot  -1.66304 0.677777 -7.88072
LeftToes  -2.158e-010 -1.26819e-010 -1.05346e-011
2004
root  -59.3655 39.7983 -15.4192 156.601 85.5544 154.723
RightUpLeg  -9.01396 4.0576 -5.9134
RightLeg  12.2952 -3.44438 -3.0156
RightFoot  -5.51863 -0.362462 6.38066
RightToes  -5.28216e-011 1.2921e-014 -6.02303e-014
Spine  6.27927 1.78203 8.12788
Spine1  -2.34826 4.52751 -13.8939
HEad  -1.05945 -29.0676 2.82828
LeftShoulder1  1.52653 -0.975765 -27.9799
LeftArm  31.0524 16.6614 -35.9906
LeftForeArm  -1.07865 -28.5801 -6.2437
LeftHand  0.785603 -4.7261 -8.70434
RightShoulder  -2.112 13.6942 -23.7081
RightArm  -74.6846 32.788 -16.1936
RightForeArm  51.2306 28.0266 3.3761
RightHand  -1.92845 4.9404 -21.7099
LeftUpLeg  -4.4269 9.9296 5.62986
LeftLeg  5.77095 6.55688 -2.79832
LeftFoot  -1.63887 0.641045 -7.43139
LeftToes  -2.158e-010 -1.26819e-010 -1.05346e-011
2005
root  -59.3423 39.8442 -15.748 160.454 85.117 158.626
RightUpLeg  -8.14753 2.23012 -6.1349
RightLeg  10.9024 -2.05771 -3.06241
RightFoot  -4.82713 -0.428163 6.93649
RightToes  -5.28216e-011 1.2921e-014 -6.02303e-014
Spine  5.90257 1.83902 7.91946
Spine1  -2.35507 4.54959 -13.9284
HEad  -0.722076 -29.7535 2.98638
LeftShoulder1  1.56205 -1.0981 -27.8437
LeftArm  31.7244 16.3619 -34.8695
LeftForeArm  -1.60479 -28.1526 -6.16811
LeftHand  0.787889 -4.78583 -8.67523
RightShoulder  -2.27045 13.9121 -24.561
RightArm  -81.0166 33.6332 -16.2267
RightForeArm  46.0621 25.588 3.10404
RightHand  -1.70114 4.51652 -20.0212
LeftUpLeg  -4.12269 9.82759 5.27253
LeftLeg  5.24526 6.12478 -3.06877
LeftFoot  -1.39135 0.562424 -6.36214
LeftToes  -2.158e-010 -1.26819e-010 -1.05346e-011
2006
root  -59.3161 39.8803 -16.0264 162.971 84.8272 161.251
RightUpLeg  -7.28709 0.422733 -6.37721
RightLeg  9.58813 -0.639633 -2.99499
RightFoot  -4.20969 -0.495881 7.48576
RightToes  -5.28216e-011 1.2921e-014 -6.02303e-014
Spine  5.57443 1.88982 7.79934
Spine1  -2.352 4.60781 -14.165
HEad  -0.156716 -30.2656 2.96317
LeftShoulder1  1.58812 -1.17832 -27.8192
LeftArm  32.834 16.0693 -33.5596
LeftForeArm  -3.7156 -27.6411 -6.15507
LeftHand  0.736608 -4.48015 -8.36501
RightShoulder  -2.56462 14.9835 -25.4943
RightArm  -88.3522 34.1149 -15.4229
RightForeArm  29.397 23.4742 3.47979
RightHand  -1.21716 3.84938 -15.4703
LeftUpLeg  -3.86867 9.67061 4.93663
LeftLeg  4.96882 6.06138 -3.11472
LeftFoot  -1.32599 0.510201 -5.73004
LeftToes  -2.158e-010 -1.26819e-010 -1.05346e-011
2007
root  -59.2917 39.9054 -16.259 166.085 84.3999 164.533
RightUpLeg  -6.4097 -1.18989 -6.52476
RightLeg  8.42689 0.431655 -2.96931
RightFoot  -3.71336 -0.547578 7.8214
RightToes  -5.28216e-011 1.2921e-014 -6.02303e-014
Spine  5.37234 1.96156 7.74056
Spine1  -2.39393 4.66729 -14.2296
HEad  0.426468 -30.9811 2.91219
LeftShoulder1  1.58361 -1.19614 -27.5883
LeftArm  34.5877 15.4679 -33.1867
LeftForeArm  -6.50832 -25.7064 -5.8416
LeftHand  0.630482 -4.23673 -7.31975
RightShoulder  -2.83476 15.7294 -26.4621
RightArm  -89.979 34.3604 -15.1195
RightForeArm  4.47722 22.6398 4.57585
RightHand  -0.674889 2.01025 -10.7546
LeftUpLeg  -3.77228 9.49954 4.71425
LeftLeg  5.08567 5.74765 -3.0803
LeftFoot  -1.43256 0.461333 -5.22157
LeftToes  -2.158e-010 -1.26819e-010 -1.05346e-011
